<mxfile host="65bd71144e">
    <diagram id="5eoSvhcZHHAxxIkLu6IA" name="Page-1">
        <mxGraphModel dx="1194" dy="736" grid="1" gridSize="10" guides="1" tooltips="1" connect="1" arrows="1" fold="1" page="1" pageScale="1" pageWidth="827" pageHeight="1169" math="0" shadow="0">
            <root>
                <mxCell id="0"/>
                <mxCell id="1" parent="0"/>
                <mxCell id="2" value="DB Server Host" style="verticalAlign=top;align=left;shape=cube;size=10;direction=south;fontStyle=0;html=1;boundedLbl=1;spacingLeft=5;" vertex="1" parent="1">
                    <mxGeometry x="320" y="250" width="130" height="140" as="geometry"/>
                </mxCell>
                <mxCell id="3" value="Main Database" style="verticalAlign=top;align=center;shape=cube;size=10;direction=south;html=1;boundedLbl=1;spacingLeft=5;" vertex="1" parent="2">
                    <mxGeometry width="100" height="80" relative="1" as="geometry">
                        <mxPoint x="10" y="50" as="offset"/>
                    </mxGeometry>
                </mxCell>
                <mxCell id="14" style="edgeStyle=none;html=1;entryX=0;entryY=0;entryDx=0;entryDy=60;entryPerimeter=0;dashed=1;" edge="1" parent="1" source="4" target="2">
                    <mxGeometry relative="1" as="geometry"/>
                </mxCell>
                <mxCell id="4" value="WebServerHost" style="verticalAlign=top;align=left;shape=cube;size=10;direction=south;fontStyle=0;html=1;boundedLbl=1;spacingLeft=5;" vertex="1" parent="1">
                    <mxGeometry x="480" y="90" width="130" height="140" as="geometry"/>
                </mxCell>
                <mxCell id="5" value="Web Server" style="verticalAlign=top;align=center;shape=cube;size=10;direction=south;html=1;boundedLbl=1;spacingLeft=5;" vertex="1" parent="4">
                    <mxGeometry width="100" height="80" relative="1" as="geometry">
                        <mxPoint x="10" y="50" as="offset"/>
                    </mxGeometry>
                </mxCell>
                <mxCell id="6" value="ClientHost" style="verticalAlign=top;align=left;shape=cube;size=10;direction=south;fontStyle=0;html=1;boundedLbl=1;spacingLeft=5;" vertex="1" parent="1">
                    <mxGeometry x="160" y="90" width="130" height="140" as="geometry"/>
                </mxCell>
                <mxCell id="7" value="Web Browser" style="verticalAlign=top;align=center;shape=cube;size=10;direction=south;html=1;boundedLbl=1;spacingLeft=5;" vertex="1" parent="6">
                    <mxGeometry width="100" height="80" relative="1" as="geometry">
                        <mxPoint x="10" y="50" as="offset"/>
                    </mxGeometry>
                </mxCell>
                <mxCell id="18" style="edgeStyle=none;html=1;entryX=0.25;entryY=1;entryDx=0;entryDy=0;entryPerimeter=0;dashed=1;" edge="1" parent="6" source="7" target="5">
                    <mxGeometry relative="1" as="geometry"/>
                </mxCell>
                <mxCell id="11" value="DB Client Host" style="verticalAlign=top;align=left;shape=cube;size=10;direction=south;fontStyle=0;html=1;boundedLbl=1;spacingLeft=5;" vertex="1" parent="1">
                    <mxGeometry x="480" y="440" width="130" height="140" as="geometry"/>
                </mxCell>
                <mxCell id="12" value="Backup Database" style="verticalAlign=top;align=center;shape=cube;size=10;direction=south;html=1;boundedLbl=1;spacingLeft=5;" vertex="1" parent="11">
                    <mxGeometry width="100" height="80" relative="1" as="geometry">
                        <mxPoint x="10" y="50" as="offset"/>
                    </mxGeometry>
                </mxCell>
                <mxCell id="13" style="edgeStyle=none;html=1;" edge="1" parent="1" source="12" target="11">
                    <mxGeometry relative="1" as="geometry"/>
                </mxCell>
                <mxCell id="15" style="edgeStyle=none;html=1;dashed=1;" edge="1" parent="1" source="4" target="12">
                    <mxGeometry relative="1" as="geometry"/>
                </mxCell>
                <mxCell id="8" value="DB Client Host" style="verticalAlign=top;align=left;shape=cube;size=10;direction=south;fontStyle=0;html=1;boundedLbl=1;spacingLeft=5;" vertex="1" parent="1">
                    <mxGeometry x="150" y="440" width="130" height="140" as="geometry"/>
                </mxCell>
                <mxCell id="9" value="DB Client" style="verticalAlign=top;align=center;shape=cube;size=10;direction=south;html=1;boundedLbl=1;spacingLeft=5;" vertex="1" parent="8">
                    <mxGeometry width="100" height="80" relative="1" as="geometry">
                        <mxPoint x="10" y="50" as="offset"/>
                    </mxGeometry>
                </mxCell>
                <mxCell id="10" style="edgeStyle=none;html=1;" edge="1" parent="8" source="9" target="8">
                    <mxGeometry relative="1" as="geometry"/>
                </mxCell>
                <mxCell id="16" style="edgeStyle=none;html=1;entryX=0;entryY=0;entryDx=80;entryDy=55;entryPerimeter=0;dashed=1;" edge="1" parent="8" source="9" target="3">
                    <mxGeometry relative="1" as="geometry"/>
                </mxCell>
                <mxCell id="17" style="edgeStyle=none;html=1;dashed=1;" edge="1" parent="8" source="9" target="12">
                    <mxGeometry relative="1" as="geometry"/>
                </mxCell>
            </root>
        </mxGraphModel>
    </diagram>
</mxfile>